<svg version="1.1" viewBox="0.0 0.0 960.0 540.0" fill="none" stroke="none" stroke-linecap="square" stroke-miterlimit="10" xmlns:xlink="http://www.w3.org/1999/xlink" xmlns="http://www.w3.org/2000/svg"><clipPath id="g1293d3747ef_0_0.0"><path d="m0 0l960.0 0l0 540.0l-960.0 0l0 -540.0z" clip-rule="nonzero"/></clipPath><g clip-path="url(#g1293d3747ef_0_0.0)"><path fill="#ffffff" d="m0 0l960.0 0l0 540.0l-960.0 0z" fill-rule="evenodd"/><path fill="#a1c3fa" d="m439.37442 326.1943l0 0c-31.241058 -22.143585 -38.58075 -65.46973 -16.393707 -96.77165l0 0c10.654602 -15.031723 26.83255 -25.223541 44.974823 -28.333405c18.142303 -3.109848 36.762848 1.1170044 51.76535 11.750732l0 0c31.241028 22.14357 38.58075 65.46971 16.393677 96.77165l0 0c-22.187073 31.30194 -65.499084 38.726257 -96.74014 16.582672z" fill-rule="evenodd"/><path fill="#a1c3fa" d="m632.42773 179.00172c34.389282 58.524612 34.148315 134.14336 -7.895874 193.45448c-31.82782 44.89911 -81.04498 70.8085 -131.69958 74.0448c3.191803 7.2597046 6.383606 14.519409 9.968323 21.224792c54.515015 -6.329712 105.6969 -35.01065 139.48938 -82.681305c49.117065 -69.2887 47.48285 -158.72946 3.890564 -225.44362c-4.715271 6.651718 -8.875549 13.696823 -13.752808 19.400848z" fill-rule="evenodd"/><path stroke="#ffffff" stroke-width="1.0" stroke-miterlimit="8.0" stroke-linecap="butt" d="m632.42773 179.00172c34.389282 58.524612 34.148315 134.14336 -7.895874 193.45448c-31.82782 44.89911 -81.04498 70.8085 -131.69958 74.0448c3.191803 7.2597046 6.383606 14.519409 9.968323 21.224792c54.515015 -6.329712 105.6969 -35.01065 139.48938 -82.681305c49.117065 -69.2887 47.48285 -158.72946 3.890564 -225.44362c-4.715271 6.651718 -8.875549 13.696823 -13.752808 19.400848z" fill-rule="evenodd"/><path fill="#307bf3" d="m558.791 277.3541c-4.0668335 41.82489 -40.76349 73.29297 -81.76938 71.36893c-2.8947449 32.27719 3.2977905 63.012573 15.008514 90.47449c48.562805 -3.0976562 95.74542 -27.930878 126.25482 -70.97012c40.30255 -56.85428 40.526367 -129.34575 7.5514526 -185.45332c-18.76709 24.21904 -43.386963 44.289246 -72.352905 58.08519c3.8377075 11.502365 6.3900757 23.690247 5.307495 36.494843z" fill-rule="evenodd"/><path stroke="#ffffff" stroke-width="1.0" stroke-miterlimit="8.0" stroke-linecap="butt" d="m558.791 277.3541c-4.0668335 41.82489 -40.76349 73.29297 -81.76938 71.36893c-2.8947449 32.27719 3.2977905 63.012573 15.008514 90.47449c48.562805 -3.0976562 95.74542 -27.930878 126.25482 -70.97012c40.30255 -56.85428 40.526367 -129.34575 7.5514526 -185.45332c-18.76709 24.21904 -43.386963 44.289246 -72.352905 58.08519c3.8377075 11.502365 6.3900757 23.690247 5.307495 36.494843z" fill-rule="evenodd"/><path fill="#000000" fill-opacity="0.0" d="m515.772 390.59872l75.24408 -147.59056l52.692932 26.83464l-75.24408 147.59055z" fill-rule="evenodd"/><path fill="#ffffff" d="m558.543 392.93564l-16.88916 -8.601044l2.427124 -4.7607727q1.1212769 -2.1994019 2.961731 -3.4013367q1.8404541 -1.2019348 4.1049805 -1.2059631q2.2645264 -0.004058838 4.610779 1.1732788l1.0720825 0.54599q2.3948364 1.2196045 3.715454 3.0669556q1.3277588 1.833435 1.4155273 4.034912q0.09490967 2.1875305 -1.0410767 4.4846497l-2.3774414 4.66333zm-13.9157715 -9.892334l13.227295 6.7361755l1.1922607 -2.3385925q1.3129272 -2.5752869 0.442688 -4.8244934q-0.87023926 -2.249237 -3.8220215 -3.752472l-0.9885254 -0.5034485q-2.8822021 -1.4677734 -5.157837 -0.9258423q-2.2896118 0.5348511 -3.5738525 3.0195007l-1.3200073 2.5891724zm25.630676 -13.086395q-0.46820068 -0.010467529 -1.4788208 -0.3673706q0.8000488 2.2836304 -0.25738525 4.357788q-0.9439087 1.8513794 -2.5984497 2.5167236q-1.661438 0.64434814 -3.2765503 -0.17819214q-1.9631958 -0.9997864 -2.27594 -3.0352478q-0.32666016 -2.0425415 1.0501099 -4.743103l1.0645142 -2.0880432l-0.9885864 -0.5034485q-1.1277466 -0.5743408 -2.1438599 -0.23260498q-1.0089722 0.32781982 -1.6760864 1.6363525q-0.5819092 1.141449 -0.39453125 2.218811q0.17340088 1.0702515 1.0088501 1.495697l-1.1000366 2.1576538q-0.94677734 -0.48217773 -1.4833374 -1.5970459q-0.536499 -1.1148987 -0.45581055 -2.5116272q0.06677246 -1.4038391 0.76226807 -2.768036q1.1071167 -2.1715698 2.817627 -2.8434753q1.7176514 -0.68582153 3.6325684 0.23675537l5.7781982 2.942627q1.7265015 0.87924194 2.9839478 0.9585266l0.18103027 0.092163086l-1.1497192 2.2550964zm-3.4458008 2.7340088q0.5180664 -1.0162048 0.46417236 -2.1833801q-0.06781006 -1.1742554 -0.6973877 -2.0033875l-2.5758667 -1.3117981l-0.8587036 1.6843567q-2.0083618 3.9394531 0.28900146 5.109436q1.0163574 0.51760864 1.9279175 0.14016724q0.9185791 -0.39138794 1.4508667 -1.4353943zm-8.025391 -18.762909l3.0491943 1.5528564l1.1922607 -2.338623l1.6569214 0.84381104l-1.1922607 2.338623l7.783203 3.9637146q0.75183105 0.38287354 1.2839355 0.26809692q0.53912354 -0.12872314 0.9223633 -0.8804321q0.18450928 -0.36190796 0.3788452 -1.0870972l1.7404175 0.88635254q-0.19616699 0.96969604 -0.600708 1.7631531q-0.73095703 1.4337769 -1.9703369 1.7319336q-1.2462158 0.27713013 -2.847412 -0.53829956l-7.783203 -3.9637146l-1.1710205 2.296875l-1.6568604 -0.84381104l1.1709595 -2.2968445l-3.0492554 -1.5528564l1.0929565 -2.1437378zm22.01178 -4.6463013q-0.46820068 -0.010498047 -1.4788818 -0.3673706q0.8000488 2.2836304 -0.25732422 4.3577576q-0.9439087 1.8514099 -2.5985107 2.5167542q-1.661377 0.6443176 -3.2764893 -0.17819214q-1.9631958 -0.9997864 -2.27594 -3.0352478q-0.3267212 -2.042572 1.0501099 -4.743103l1.0645142 -2.0880432l-0.9885864 -0.5034485q-1.1278076 -0.5743408 -2.1438599 -0.23260498q-1.0089722 0.32781982 -1.6760864 1.636322q-0.5819092 1.1414795 -0.3945923 2.218811q0.17346191 1.070282 1.0088501 1.495697l-1.0999756 2.1576538q-0.94677734 -0.48214722 -1.4833374 -1.5970459q-0.536499 -1.1148987 -0.45581055 -2.5116272q0.06677246 -1.4038391 0.76226807 -2.7680054q1.1070557 -2.1716003 2.817627 -2.8435059q1.7176514 -0.68582153 3.6325073 0.23675537l5.7782593 2.9426575q1.7265015 0.87924194 2.9839478 0.9584961l0.18096924 0.0921936l-1.1496582 2.2550964zm-3.4458618 2.7339783q0.5180664 -1.0161743 0.4642334 -2.1833496q-0.06781006 -1.1742859 -0.6973877 -2.003418l-2.5758667 -1.3117676l-0.8587036 1.6843567q-2.0084229 3.9394531 0.28894043 5.1094055q1.0164185 0.51763916 1.9279175 0.14016724q0.91864014 -0.39135742 1.4508667 -1.4353943zm10.466797 -16.505463l-1.135498 2.2272644l-16.88916 -8.601044l1.135498 -2.2272644l16.88916 8.601044zm0.80596924 -21.086578q2.4783936 1.262146 3.904358 3.0404358q1.4260254 1.7782898 1.6200562 3.8058777q0.19396973 2.027588 -0.84924316 4.073883q-1.0148926 1.9906006 -2.7772827 3.0394287q-1.7763062 1.0417175 -4.019226 0.9690552q-2.256897 -0.07974243 -4.6519775 -1.2644348l-1.2252808 -0.6239624q-2.4365845 -1.2408752 -3.8694458 -3.0401917q-1.4328003 -1.7992859 -1.633667 -3.8479004q-0.21472168 -2.055664 0.807251 -4.060211q1.0289917 -2.0184326 2.8052979 -3.0601501q1.7695312 -1.0627441 4.061035 -0.9477844q2.291565 0.1149292 4.7560425 1.3699951l1.0720825 0.5459595zm-2.2283325 1.6531677q-2.9935303 -1.5245056 -5.212158 -1.1288452q-2.232544 0.3885193 -3.3325806 2.546173q-1.0786743 2.1159058 -0.08099365 4.1495056q0.98376465 2.0264893 3.8167725 3.5218506l1.2391968 0.631073q2.9099731 1.4819641 5.2053223 1.1078491q2.281433 -0.38119507 3.3743286 -2.5249023q1.1000366 -2.1576538 0.12988281 -4.142151q-0.9700928 -1.9844666 -3.8866577 -3.5223694l-1.2531128 -0.6381836zm15.163635 -18.425293l-3.6122437 7.085449l3.6046753 3.8346863l-1.1709595 2.2968445l-13.6033325 -15.046143l0.9935303 -1.9488525l20.182068 2.1419983l-1.1638794 2.2829285l-5.2298584 -0.6469116zm-5.088501 5.4744873l2.9238892 -5.735199l-9.363647 -1.138916l6.4397583 6.874115zm7.1672974 -14.987366l6.6135864 3.368103l-1.135437 2.227234l-16.88916 -8.601044l3.1722412 -6.2223816q1.4122925 -2.7701416 3.6343994 -3.6199036q2.208252 -0.8568115 4.5473633 0.33441162q2.4505615 1.2479553 2.9994507 3.4738464q0.5420532 2.204834 -0.91986084 5.0724487l-2.022583 3.9672852zm-1.8239746 -0.92889404l2.0367432 -3.9951172q0.90838623 -1.7818298 0.555603 -3.153839q-0.34576416 -1.3859558 -1.9469604 -2.2013855q-1.5037231 -0.7658081 -2.8984375 -0.26617432q-1.3875732 0.48568726 -2.2599487 2.1280212l-2.100647 4.1204224l6.6136475 3.3680725zm16.153564 -10.83786l-1.135498 2.2272644l-16.8891 -8.601044l1.135437 -2.2272644l16.88916 8.601044z" fill-rule="nonzero"/><path fill="#a1c3fa" d="m377.0798 414.529c-71.59952 -50.755066 -94.20407 -145.92163 -56.56726 -222.54398c-7.9086304 -0.60772705 -15.81723 -1.2154541 -23.170807 -1.4297333c-36.733917 84.76012 -11.099274 186.24004 67.160645 241.7165c38.852448 27.541504 84.200775 38.86075 127.67432 36.354767c-3.585144 -6.7068176 -6.7772217 -13.968109 -9.969299 -21.22937c-36.050873 0.2699585 -72.93558 -10.048096 -105.127594 -32.868195z" fill-rule="evenodd"/><path stroke="#ffffff" stroke-width="1.0" stroke-miterlimit="8.0" stroke-linecap="butt" d="m377.0798 414.529c-71.59952 -50.755066 -94.20407 -145.92163 -56.56726 -222.54398c-7.9086304 -0.60772705 -15.81723 -1.2154541 -23.170807 -1.4297333c-36.733917 84.76012 -11.099274 186.24004 67.160645 241.7165c38.852448 27.541504 84.200775 38.86075 127.67432 36.354767c-3.585144 -6.7068176 -6.7772217 -13.968109 -9.969299 -21.22937c-36.050873 0.2699585 -72.93558 -10.048096 -105.127594 -32.868195z" fill-rule="evenodd"/><path fill="#0944a1" d="m467.0682 348.23547c-40.84088 -6.598633 -69.60458 -43.75284 -65.8974 -85.031525c1.0878601 -12.799988 5.054962 -25.155533 11.3029175 -35.095963c-26.4198 -17.930038 -55.388123 -28.885315 -85.4653 -32.643646c-36.072937 73.41826 -14.452057 164.58348 54.110565 213.1858c30.82663 21.852203 66.151825 31.725616 100.68173 31.455658c-11.843842 -28.353363 -16.73236 -59.759308 -14.732513 -91.87033z" fill-rule="evenodd"/><path stroke="#ffffff" stroke-width="1.0" stroke-miterlimit="8.0" stroke-linecap="butt" d="m467.0682 348.23547c-40.84088 -6.598633 -69.60458 -43.75284 -65.8974 -85.031525c1.0878601 -12.799988 5.054962 -25.155533 11.3029175 -35.095963c-26.4198 -17.930038 -55.388123 -28.885315 -85.4653 -32.643646c-36.072937 73.41826 -14.452057 164.58348 54.110565 213.1858c30.82663 21.852203 66.151825 31.725616 100.68173 31.455658c-11.843842 -28.353363 -16.73236 -59.759308 -14.732513 -91.87033z" fill-rule="evenodd"/><path fill="#000000" fill-opacity="0.0" d="m448.63647 389.58246l-77.543304 -146.36221l-52.251953 27.653564l77.543304 146.36218z" fill-rule="evenodd"/><path fill="#ffffff" d="m367.27658 274.90515l-3.7233276 -7.0277405l-5.2117615 0.7429199l-1.2069702 -2.2781372l20.13861 -2.4730225l1.0241089 1.9329834l-13.3576355 15.272034l-1.199646 -2.2643433l3.536621 -3.9046936zm-1.5557556 -7.308655l3.0137634 5.6884766l6.3161926 -7.0021667l-9.329956 1.3136902zm5.4713135 22.308868q-2.122223 -0.4678955 -3.3950195 -2.8703003q-1.0533752 -1.9881897 -0.44924927 -3.6514587q0.6114197 -1.6494751 2.868988 -2.8619385l8.092773 -4.282959l1.1265259 2.1262817l-8.037537 4.253723q-2.8311157 1.4983215 -1.6094971 3.8040771q1.2947388 2.4438171 3.5419617 2.2798767l9.045685 -4.7872925l1.1264954 2.1262512l-12.442993 6.585266l-1.0752869 -2.029602l1.2071533 -0.69192505zm18.579498 0.6585388l-3.024414 1.600647l1.2289124 2.3195496l-1.6434021 0.869751l-1.2289429 -2.3195496l-7.719879 4.0856323q-0.74575806 0.39468384 -0.95770264 0.8957825q-0.20465088 0.5148926 0.19036865 1.2604675q0.19018555 0.35897827 0.6720886 0.93481445l-1.7262573 0.91360474q-0.68099976 -0.71798706 -1.0979614 -1.5049744q-0.75341797 -1.4221191 -0.2848816 -2.6070251q0.48965454 -1.1784363 2.0778198 -2.0189514l7.7199097 -4.0856323l-1.2069702 -2.2781372l1.6434021 -0.869751l1.2069702 2.2781372l3.0244446 -1.6006165l1.1264954 2.1262512zm-7.0026855 8.843658q1.822937 -0.9647827 3.6672058 -1.0215454q1.8442688 -0.056762695 3.311737 0.81066895q1.4812927 0.86013794 2.3517761 2.5031433q1.3459473 2.5404968 0.4048462 5.036194q-0.9200134 2.5022278 -3.8477783 4.051697l-0.13809204 0.0730896q-1.822937 0.9647827 -3.6387634 1.0418396q-1.802002 0.0697937 -3.3044128 -0.7968445q-1.488617 -0.8739319 -2.3810425 -2.5583801q-1.338623 -2.5266724 -0.41864014 -5.0289q0.9411011 -2.4957275 3.8412476 -4.0305786l0.1519165 -0.0803833zm0.8852234 2.271637q-2.0715027 1.0963135 -2.8235168 2.7141113q-0.7446594 1.6315918 0.10385132 3.2331848q0.8631897 1.6292114 2.6384583 1.9094849q1.7752686 0.28027344 4.067749 -0.9329834q2.0439148 -1.0817261 2.795105 -2.734436q0.7584839 -1.6388855 -0.09005737 -3.240509q-0.83392334 -1.5739746 -2.6026917 -1.8753662q-1.7549744 -0.3086853 -4.0888977 0.9265137zm13.696594 10.499451l-1.3517456 0.7861023q2.3399658 0.5117798 3.5688782 2.8313293q1.3825378 2.6095276 -0.11520386 4.6219788q1.2268372 0.14624023 2.3059082 0.84799194q1.0791016 0.7017517 1.7959595 2.0548096q2.1652527 4.086853 -2.1345825 6.4508667l-8.34137 4.414551l-1.1264954 -2.1262817l8.217072 -4.348755q1.3257751 -0.70162964 1.6668091 -1.6599731q0.34103394 -0.9583435 -0.41973877 -2.3942566q-0.62908936 -1.1873779 -1.7503662 -1.6016235q-1.1139526 -0.40045166 -2.3812866 0.11114502l-8.258484 4.370697l-1.1338196 -2.1400757l8.161835 -4.319519q2.706787 -1.4325256 1.2949829 -4.09729q-1.1045532 -2.0848389 -3.2957153 -1.9151917l-9.087097 4.809204l-1.1264954 -2.1262512l12.442963 -6.585266l1.0679932 2.015808zm1.5011902 32.904755q0.277771 -0.37683105 1.1510315 -0.9981079q-2.3294373 -0.65875244 -3.4193726 -2.715973q-0.9729004 -1.8363342 -0.56622314 -3.5718994q0.4277954 -1.729065 2.0297852 -2.5768738q1.9472351 -1.0305481 3.793335 -0.115997314q1.8598938 0.9072571 3.2789917 3.5858154l1.0972595 2.071045l0.9805298 -0.5189514q1.1186218 -0.5920105 1.4230652 -1.6193542q0.31176758 -1.0135803 -0.37582397 -2.311432q-0.599823 -1.1321716 -1.589508 -1.5983887q-0.9758606 -0.47351074 -1.8044739 -0.034973145l-1.1338196 -2.1401062q0.93911743 -0.49697876 2.1602783 -0.29470825q1.2211609 0.20227051 2.3181458 1.0713196q1.1108093 0.8617554 1.8276672 2.2148438q1.1411438 2.1538696 0.7076721 3.9389648q-0.42617798 1.7989197 -2.2824097 2.8343506l-5.7312317 3.033142q-1.7124634 0.90631104 -2.5003357 1.888977l-0.17953491 0.09503174l-1.1850281 -2.2367249zm-0.25683594 -4.38974q0.5339966 1.0079346 1.5204468 1.6349487q1.0002441 0.61972046 2.040985 0.5815735l2.5549011 -1.3521118l-0.88513184 -1.6706543q-2.0701294 -3.9073486 -4.348816 -2.701416q-1.0081482 0.53356934 -1.2232361 1.4959412q-0.20779419 0.9762268 0.34085083 2.0117188zm19.97403 4.2252502l-3.024414 1.600647l1.2289124 2.31958l-1.6434326 0.869751l-1.2289124 -2.31958l-7.719879 4.0856323q-0.74575806 0.39468384 -0.95770264 0.8957825q-0.20465088 0.5148926 0.19036865 1.2604675q0.19018555 0.35897827 0.6720886 0.93481445l-1.7262573 0.91360474q-0.68099976 -0.71795654 -1.0979614 -1.5049744q-0.75341797 -1.4221191 -0.2848816 -2.6070251q0.48965454 -1.1784058 2.0778198 -2.018921l7.7199097 -4.085663l-1.2069702 -2.2781372l1.6434021 -0.869751l1.2069702 2.2781372l3.0244446 -1.6006165l1.1264954 2.1262512zm-11.69812 15.3003845l-1.1265259 -2.1262817l12.442993 -6.585266l1.1264954 2.1262817l-12.442963 6.585266zm14.522003 -10.637848q0.5248108 -0.27770996 1.0520935 -0.15020752q0.52731323 0.12753296 0.85650635 0.74887085q0.3291626 0.6213074 0.13833618 1.1288757q-0.1835022 0.52142334 -0.7082825 0.7991333q-0.5109863 0.27044678 -1.0317993 0.121795654q-0.51348877 -0.13482666 -0.8426819 -0.75616455q-0.3291626 -0.6213074 -0.15216064 -1.121582q0.17703247 -0.50027466 0.6879883 -0.77072144zm-6.6762085 10.12738q1.822937 -0.9647522 3.6672058 -1.0215454q1.8442688 -0.056762695 3.311737 0.81066895q1.4812622 0.86013794 2.3517456 2.5031738q1.3459778 2.5404663 0.4048462 5.036194q-0.9199829 2.5021973 -3.8477478 4.0516663l-0.13809204 0.0730896q-1.822937 0.9647827 -3.6387634 1.0418701q-1.802002 0.06976318 -3.3044128 -0.796875q-1.488617 -0.8739319 -2.3810425 -2.5583801q-1.338623 -2.5266724 -0.41864014 -5.0289q0.9411011 -2.495697 3.8412476 -4.030548l0.1519165 -0.08041382zm0.8852234 2.271637q-2.0715332 1.096344 -2.8235168 2.7141113q-0.74468994 1.6315918 0.10385132 3.2331848q0.8631592 1.629242 2.6384583 1.9094849q1.7752686 0.28027344 4.067749 -0.9329834q2.0439148 -1.0816956 2.7950745 -2.7344055q0.7585144 -1.638916 -0.090026855 -3.240509q-0.83392334 -1.5740051 -2.6026917 -1.8753662q-1.7549744 -0.30871582 -4.0888977 0.92648315zm13.696594 10.499481l-1.5239868 0.894928q2.5560913 0.4857788 3.7703857 2.77771q2.0920715 3.9487915 -2.3328552 6.3436584l-8.230896 4.356079l-1.1338196 -2.1400757l8.230896 -4.356079q1.3533936 -0.7162781 1.6668091 -1.6599731q0.32720947 -0.9510193 -0.34576416 -2.2212524q-0.5486145 -1.0355225 -1.5179749 -1.5301819q-0.96936035 -0.4946289 -2.093811 -0.4475708l-8.86615 4.6922607l-1.1264954 -2.1262512l12.442993 -6.585266l1.060669 2.0020142z" fill-rule="nonzero"/><path fill="#ffffff" d="m361.7187 332.76764l-3.7233276 -7.0277405l-5.211731 0.7429199l-1.2069702 -2.2781372l20.13861 -2.4730225l1.0241089 1.9329834l-13.3576355 15.272034l-1.199646 -2.2643433l3.5365906 -3.9046936zm-1.5557556 -7.308655l3.013794 5.6884766l6.316162 -7.0021667l-9.329956 1.3136902zm8.147949 14.478058l-6.559845 3.4716797l-1.1703796 -2.2091064l16.75177 -8.865601l3.269806 6.171692q1.455658 2.747589 0.8736267 5.0532837q-0.5682373 2.2983704 -2.8883667 3.526245q-2.4305725 1.2863464 -4.568329 0.45544434q-2.1166077 -0.8244324 -3.6235046 -3.6686707l-2.0847778 -3.934967zm1.8091431 -0.9574585l2.0993958 3.9625854q0.93634033 1.7673035 2.2623596 2.2676392q1.3333435 0.51412964 2.9215088 -0.3263855q1.4915161 -0.78933716 1.8844299 -2.217102q0.40026855 -1.4139404 -0.44259644 -3.0715942l-2.1652527 -4.086853l-6.559845 3.4717102zm-0.415802 19.440704l-1.1703796 -2.209137l16.75177 -8.865601l1.1703796 2.2091064l-16.75177 8.865631z" fill-rule="nonzero"/><path fill="#a1c3fa" d="m335.4566 167.56795c56.605988 -79.85333 166.9166 -99.14062 246.75989 -42.54174c18.297424 12.970573 32.572876 28.089226 44.32837 45.587517c4.717163 -6.654434 9.04126 -12.754349 13.203918 -19.801834c-12.541687 -16.389221 -27.210205 -30.953339 -44.953186 -43.53087c-89.26926 -63.28069 -213.4002 -42.125603 -277.08194 47.709396c-5.896454 8.318054 -11.238434 17.02916 -16.02597 26.1333c7.9032593 0.6032562 15.806519 1.2065125 23.709778 1.8097687c2.9833984 -5.3838806 6.5212708 -10.37471 10.059143 -15.36554z" fill-rule="evenodd"/><path stroke="#ffffff" stroke-width="1.0" stroke-miterlimit="8.0" stroke-linecap="butt" d="m335.4566 167.56795c56.605988 -79.85333 166.9166 -99.14062 246.75989 -42.54174c18.297424 12.970573 32.572876 28.089226 44.32837 45.587517c4.717163 -6.654434 9.04126 -12.754349 13.203918 -19.801834c-12.541687 -16.389221 -27.210205 -30.953339 -44.953186 -43.53087c-89.26926 -63.28069 -213.4002 -42.125603 -277.08194 47.709396c-5.896454 8.318054 -11.238434 17.02916 -16.02597 26.1333c7.9032593 0.6032562 15.806519 1.2065125 23.709778 1.8097687c2.9833984 -5.3838806 6.5212708 -10.37471 10.059143 -15.36554z" fill-rule="evenodd"/><path fill="#0d5ddf" d="m341.2554 171.73235c-3.396576 4.791504 -6.793152 9.582993 -9.657776 14.751556c30.266205 4.656723 60.17285 15.457886 87.146515 33.778915c15.782318 -20.009018 40.916443 -31.788956 68.52301 -29.017593c27.074646 2.3943024 49.94745 18.608261 62.68103 41.233322c28.994263 -13.843063 52.73761 -33.80812 70.62982 -57.92093c-11.274475 -16.791275 -24.967834 -31.297653 -42.521423 -43.74092c-76.59726 -54.29786 -182.45602 -35.74833 -236.80118 40.91565z" fill-rule="evenodd"/><path stroke="#ffffff" stroke-width="1.0" stroke-miterlimit="8.0" stroke-linecap="butt" d="m341.2554 171.73235c-3.396576 4.791504 -6.793152 9.582993 -9.657776 14.751556c30.266205 4.656723 60.17285 15.457886 87.146515 33.778915c15.782318 -20.009018 40.916443 -31.788956 68.52301 -29.017593c27.074646 2.3943024 49.94745 18.608261 62.68103 41.233322c28.994263 -13.843063 52.73761 -33.80812 70.62982 -57.92093c-11.274475 -16.791275 -24.967834 -31.297653 -42.521423 -43.74092c-76.59726 -54.29786 -182.45602 -35.74833 -236.80118 40.91565z" fill-rule="evenodd"/><path fill="#000000" fill-opacity="0.0" d="m397.14697 121.062996l165.66931 0l0 59.11811l-165.66931 0z" fill-rule="evenodd"/><path fill="#ffffff" d="m428.80484 151.45642l-8.203125 0l0 6.71875l9.53125 0l0 2.046875l-12.03125 0l0 -18.953125l11.90625 0l0 2.0625l-9.40625 0l0 6.09375l8.203125 0l0 2.03125zm6.3378296 -5.3125l0.078125 1.765625q1.625 -2.03125 4.21875 -2.03125q4.46875 0 4.515625 5.03125l0 9.3125l-2.421875 0l0 -9.3125q0 -1.53125 -0.6875 -2.25q-0.6875 -0.734375 -2.125 -0.734375q-1.171875 0 -2.0625 0.625q-0.890625 0.625 -1.375 1.640625l0 10.03125l-2.40625 0l0 -14.078125l2.265625 0zm11.864044 6.921875q0 -3.296875 1.515625 -5.234375q1.53125 -1.953125 4.046875 -1.953125q2.578125 0 4.015625 1.828125l0.125 -1.5625l2.1875 0l0 13.734375q0 2.734375 -1.625 4.3125q-1.609375 1.578125 -4.34375 1.578125q-1.515625 0 -2.984375 -0.65625q-1.453125 -0.640625 -2.21875 -1.78125l1.25 -1.4375q1.546875 1.90625 3.78125 1.90625q1.765625 0 2.734375 -1.0q0.984375 -0.984375 0.984375 -2.765625l0 -1.21875q-1.4375 1.671875 -3.9375 1.671875q-2.46875 0 -4.0 -1.984375q-1.53125 -2.0 -1.53125 -5.4375zm2.421875 0.265625q0 2.390625 0.96875 3.75q0.984375 1.359375 2.734375 1.359375q2.28125 0 3.34375 -2.078125l0 -6.421875q-1.09375 -2.015625 -3.3125 -2.015625q-1.75 0 -2.75 1.375q-0.984375 1.359375 -0.984375 4.03125zm15.720734 6.890625l-2.40625 0l0 -14.078125l2.40625 0l0 14.078125zm-2.609375 -17.8125q0 -0.59375 0.359375 -1.0q0.359375 -0.40625 1.0625 -0.40625q0.703125 0 1.0625 0.40625q0.375 0.40625 0.375 1.0q0 0.578125 -0.375 0.96875q-0.359375 0.390625 -1.0625 0.390625q-0.703125 0 -1.0625 -0.390625q-0.359375 -0.390625 -0.359375 -0.96875zm8.734436 3.734375l0.078125 1.765625q1.625 -2.03125 4.21875 -2.03125q4.46875 0 4.515625 5.03125l0 9.3125l-2.421875 0l0 -9.3125q0 -1.53125 -0.6875 -2.25q-0.6875 -0.734375 -2.125 -0.734375q-1.171875 0 -2.0625 0.625q-0.890625 0.625 -1.375 1.640625l0 10.03125l-2.40625 0l0 -14.078125l2.265625 0zm18.28592 14.34375q-2.875 0 -4.671875 -1.875q-1.796875 -1.890625 -1.796875 -5.046875l0 -0.4375q0 -2.09375 0.796875 -3.734375q0.8125 -1.65625 2.25 -2.578125q1.4375 -0.9375 3.109375 -0.9375q2.75 0 4.265625 1.8125q1.53125 1.8125 1.53125 5.171875l0 1.0l-9.53125 0q0.046875 2.09375 1.203125 3.375q1.171875 1.28125 2.96875 1.28125q1.28125 0 2.15625 -0.515625q0.890625 -0.53125 1.546875 -1.390625l1.484375 1.15625q-1.78125 2.71875 -5.3125 2.71875zm-0.3125 -12.625q-1.453125 0 -2.4375 1.0625q-0.984375 1.046875 -1.21875 2.96875l7.046875 0l0 -0.1875q-0.109375 -1.828125 -1.0 -2.828125q-0.875 -1.015625 -2.390625 -1.015625zm26.03357 7.40625l-7.953125 0l-1.78125 4.953125l-2.578125 0l7.234375 -18.953125l2.1875 0l7.25 18.953125l-2.5625 0l-1.796875 -4.953125zm-7.1875 -2.046875l6.4375 0l-3.234375 -8.859375l-3.203125 8.859375zm16.607788 -0.421875l0 7.421875l-2.5 0l0 -18.953125l6.984375 0q3.109375 0 4.875 1.59375q1.765625 1.578125 1.765625 4.203125q0 2.75 -1.734375 4.25q-1.71875 1.484375 -4.9375 1.484375l-4.453125 0zm0 -2.046875l4.484375 0q2.0 0 3.0625 -0.9375q1.078125 -0.9375 1.078125 -2.734375q0 -1.6875 -1.078125 -2.703125q-1.0625 -1.015625 -2.921875 -1.046875l-4.625 0l0 7.421875zm16.98822 9.46875l-2.5 0l0 -18.953125l2.5 0l0 18.953125z" fill-rule="nonzero"/></g></svg>